#!OML:ASF H:\MichaelJackson\Top Level 1\Subject 1\Session 1\male.ASF
:FULLY-SPECIFIED
:DEGREES
1505
root -9.02875 16.181 17.4408 -356.13 6.3363 -10.0066
lowerback 2.65867 -0.862684 -3.90574
upperback 0.0542035 -1.20946 4.39411
thorax -1.26046 -0.571871 6.81626
lowerneck -1.05599 -13.7707 -9.31084
upperneck 16.2619 -19.3453 7.12824
head 6.74737 -9.51316 2.29071
rclavicle 8.59744e-015 3.57812e-015
rhumerus -41.089 -2.64708 -44.4318
rradius 39.0143
rwrist 14.7453
rhand -14.8703 -12.0228
rfingers 7.12502
rthumb 11.2898 -41.699
lclavicle 8.59744e-015 3.57812e-015
lhumerus 1.15703 31.0273 15.4031
lradius 146.032
lwrist 60.5147
lhand -27.434 34.9797
lfingers 7.12502
lthumb -0.839219 64.9578
rfemur -13.8998 -5.45124 7.79584
rtibia 40.511
rfoot -7.61578 -37.2889
rtoes 30.8044
lfemur -34.0504 28.137 -10.647
ltibia 58.0885
lfoot -25.8075 6.80691
ltoes 27.2128
1506
root -8.974 16.2184 17.4471 -356.217 6.37965 -9.82186
lowerback 2.68158 -0.825654 -4.04722
upperback 0.0153856 -1.1652 4.32017
thorax -1.31873 -0.546079 6.81911
lowerneck -1.26299 -13.7489 -9.25727
upperneck 16.6451 -19.3012 6.93035
head 6.87703 -9.4889 2.20184
rclavicle 7.30534e-015 -1.03368e-014
rhumerus -41.375 -2.85869 -44.3561
rradius 38.9379
rwrist 14.8623
rhand -15.1115 -11.4646
rfingers 7.12502
rthumb 11.0573 -41.1533
lclavicle 7.30534e-015 -1.03368e-014
lhumerus 0.758837 31.154 14.7208
lradius 145.525
lwrist 60.3329
lhand -27.3467 34.8423
lfingers 7.12502
lthumb -0.754936 64.8207
rfemur -14.6947 -6.5968 8.03045
rtibia 41.7307
rfoot -7.61901 -36.602
rtoes 32.3133
lfemur -33.5906 28.6418 -11.0415
ltibia 57.4536
lfoot -25.7278 6.16127
ltoes 27.8494
1507
root -8.92145 16.2533 17.4524 -356.27 6.47989 -9.60201
lowerback 2.62019 -0.800821 -4.25978
upperback -0.0120246 -1.13758 4.26221
thorax -1.3138 -0.53041 6.87855
lowerneck -1.22408 -13.6872 -9.25805
upperneck 16.8003 -19.2273 6.90563
head 6.91185 -9.45369 2.20117
rclavicle -2.16178e-014 9.14409e-015
rhumerus -41.7563 -2.85442 -44.3139
rradius 39.0911
rwrist 14.7323
rhand -14.7674 -11.777
rfingers 7.12502
rthumb 11.3891 -41.4477
lclavicle -2.16178e-014 9.14409e-015
lhumerus 0.459462 31.289 14.1893
lradius 144.998
lwrist 60.0594
lhand -27.1387 34.8548
lfingers 7.12502
lthumb -0.554078 64.8338
rfemur -15.521 -7.85992 8.24721
rtibia 43.0265
rfoot -6.76374 -35.4888
rtoes 30.6676
lfemur -33.1836 29.0726 -11.4872
ltibia 56.818
lfoot -25.6442 5.52608
ltoes 28.4426
1508
root -8.87042 16.2907 17.4576 -356.325 6.54747 -9.43008
lowerback 2.60199 -0.789285 -4.3436
upperback -0.00402921 -1.1253 4.1905
thorax -1.29698 -0.524612 6.84977
lowerneck -1.52923 -13.6523 -9.26889
upperneck 17.1529 -19.1639 6.78386
head 7.06151 -9.4164 2.13875
rclavicle -4.77083e-015 -3.33958e-014
rhumerus -41.956 -2.99481 -44.2883
rradius 39.0843
rwrist 14.5696
rhand -14.9407 -11.2733
rfingers 7.12502
rthumb 11.222 -40.9531
lclavicle -4.77083e-015 -3.33958e-014
lhumerus 0.243231 31.4901 13.8049
lradius 144.425
lwrist 59.7971
lhand -26.8731 34.7523
lfingers 7.12502
lthumb -0.297567 64.7318
rfemur -16.3843 -9.0487 8.56758
rtibia 44.3626
rfoot -5.5899 -34.3204
rtoes 27.477
lfemur -32.7527 29.525 -11.8573
ltibia 56.1706
lfoot -25.573 4.79306
ltoes 29.3776
1509
root -8.82075 16.3246 17.4661 -356.36 6.74133 -9.22926
lowerback 2.53063 -0.77356 -4.49018
upperback -0.121183 -1.1075 4.05546
thorax -1.38074 -0.509171 6.79046
lowerneck -1.26885 -13.5994 -9.09295
upperneck 17.2627 -19.1223 6.73578
head 7.02681 -9.39668 2.12344
rclavicle 1.16786e-014 3.81667e-014
rhumerus -42.5764 -3.06136 -44.3014
rradius 39.1758
rwrist 14.47
rhand -14.7204 -11.4501
rfingers 7.12502
rthumb 11.4344 -41.1183
lclavicle 1.16786e-014 3.81667e-014
lhumerus 0.0896825 31.4649 13.2979
lradius 143.893
lwrist 59.8678
lhand -26.6229 34.6697
lfingers 7.12502
lthumb -0.0558297 64.6494
rfemur -17.2192 -10.4923 8.88156
rtibia 45.7491
rfoot -5.11762 -32.9811
rtoes 25.0044
lfemur -32.3763 29.9702 -12.2781
ltibia 55.5363
lfoot -25.4818 3.99059
ltoes 30.1946
1510
root -8.77465 16.3596 17.4722 -356.399 6.98756 -9.09356
lowerback 2.50761 -0.80293 -4.56822
upperback -0.167552 -1.14937 3.97192
thorax -1.40968 -0.52771 6.74821
lowerneck -1.43714 -13.553 -9.01641
upperneck 17.5377 -19.0643 6.67546
head 7.12625 -9.35879 2.08067
rclavicle -1.82385e-014 1.03368e-014
rhumerus -42.9171 -3.14833 -44.3277
rradius 39.127
rwrist 14.508
rhand -14.7555 -11.322
rfingers 7.12502
rthumb 11.4006 -40.9921
lclavicle -1.82385e-014 1.03368e-014
lhumerus -0.1406 31.6208 12.8434
lradius 143.384
lwrist 60.1292
lhand -26.53 34.658
lfingers 7.12502
lthumb 0.0338676 64.6378
rfemur -18.0788 -11.9518 9.33154
rtibia 47.1423
rfoot -4.40228 -31.823
rtoes 22.5442
lfemur -32.0199 30.369 -12.6026
ltibia 54.9088
lfoot -25.3659 3.09284
ltoes 31.165
1511
root -8.72839 16.3934 17.4782 -356.43 7.2448 -8.91632
lowerback 2.44943 -0.825452 -4.70004
upperback -0.227805 -1.18246 3.89396
thorax -1.43342 -0.541172 6.74212
lowerneck -1.49476 -13.5101 -8.96798
upperneck 17.7726 -19.0127 6.61191
head 7.19714 -9.3299 2.04964
rclavicle 1.05356e-014 2.70347e-014
rhumerus -43.3638 -3.1017 -44.3449
rradius 39.181
rwrist 14.4019
rhand -14.907 -11.1022
rfingers 7.12502
rthumb 11.2544 -40.7803
lclavicle 1.05356e-014 2.70347e-014
lhumerus -0.419365 31.6994 12.3602
lradius 142.868
lwrist 60.505
lhand -26.6881 34.3211
lfingers 7.12502
lthumb -0.118859 64.3008
rfemur -18.945 -13.4379 9.75736
rtibia 48.5289
rfoot -3.89636 -30.8021
rtoes 20.7152
lfemur -31.6687 30.7302 -12.9749
ltibia 54.2875
lfoot -25.2533 2.24454
ltoes 31.9322
1512
root -8.68544 16.429 17.4838 -356.501 7.58011 -8.83215
lowerback 2.4768 -0.864527 -4.70283
upperback -0.298549 -1.23667 3.80545
thorax -1.51567 -0.564031 6.65311
lowerneck -1.66279 -13.4802 -8.9009
upperneck 18.0861 -18.9809 6.55326
head 7.31319 -9.30435 2.00458
rclavicle 1.70458e-014 -3.26007e-014
rhumerus -43.8553 -3.10027 -44.4126
rradius 39.2323
rwrist 14.3593
rhand -14.7121 -11.3311
rfingers 7.12502
rthumb 11.4424 -40.9988
lclavicle 1.70458e-014 -3.26007e-014
lhumerus -0.597963 31.6645 11.965
lradius 142.341
lwrist 60.5693
lhand -26.9162 34.1803
lfingers 7.12502
lthumb -0.339161 64.1598
rfemur -19.7579 -14.8298 10.339
rtibia 49.8861
rfoot -3.67128 -30.0608
rtoes 19.1769
lfemur -31.2917 31.0377 -13.2051
ltibia 53.6709
lfoot -25.1076 1.31875
ltoes 32.7988
